<?xml version="1.0" standalone="no"?>
<!DOCTYPE svg PUBLIC "-//W3C//DTD SVG 20010904//EN"
 "http://www.w3.org/TR/2001/REC-SVG-20010904/DTD/svg10.dtd">
<svg version="1.0" xmlns="http://www.w3.org/2000/svg"
 width="512.000000pt" height="512.000000pt" viewBox="0 0 512.000000 512.000000"
 preserveAspectRatio="xMidYMid meet">
<metadata>
Created by potrace 1.11, written by Peter Selinger 2001-2013
</metadata>
<g transform="translate(0.000000,512.000000) scale(0.100000,-0.100000)"
fill="#000000" stroke="none">
<path d="M3880 5040 l0 -80 -75 0 -75 0 0 -230 0 -230 75 0 75 0 0 -80 0 -80
80 0 80 0 0 -75 0 -75 80 0 80 0 0 -80 0 -80 75 0 75 0 0 -80 0 -80 80 0 80 0
0 80 0 80 75 0 75 0 0 80 0 80 80 0 80 0 0 75 0 75 75 0 75 0 0 80 0 80 75 0
75 0 0 230 0 230 -75 0 -75 0 0 80 0 80 -230 0 -230 0 0 -80 0 -80 -80 0 -80
0 0 80 0 80 -235 0 -235 0 0 -80z"/>
<path d="M1080 4885 l0 -75 -80 0 -80 0 0 -390 0 -390 80 0 80 0 0 -390 0
-390 -80 0 -80 0 0 -75 0 -75 -75 0 -75 0 0 -80 0 -80 -80 0 -80 0 0 -80 0
-80 -75 0 -75 0 0 -75 0 -75 -80 0 -80 0 0 -80 0 -80 -75 0 -75 0 0 -235 0
-235 -75 0 -75 0 0 -385 0 -385 75 0 75 0 0 -160 0 -160 75 0 75 0 0 -75 0
-75 80 0 80 0 0 -80 0 -80 75 0 75 0 0 -75 0 -75 80 0 80 0 0 -80 0 -80 155 0
155 0 0 -75 0 -75 780 0 780 0 0 75 0 75 235 0 235 0 0 80 0 80 155 0 155 0 0
75 0 75 155 0 155 0 0 80 0 80 75 0 75 0 0 75 0 75 80 0 80 0 0 80 0 80 80 0
80 0 0 80 0 80 155 0 155 0 0 -80 0 -80 155 0 155 0 0 80 0 80 75 0 75 0 0 75
0 75 75 0 75 0 0 80 0 80 -75 0 -75 0 0 75 0 75 -230 0 -230 0 0 235 0 235
-80 0 -80 0 0 80 0 80 -75 0 -75 0 0 -80 0 -80 -80 0 -80 0 0 -80 0 -80 -80 0
-80 0 0 -155 0 -155 -75 0 -75 0 0 80 0 80 -80 0 -80 0 0 155 0 155 -75 0 -75
0 0 155 0 155 -80 0 -80 0 0 80 0 80 -75 0 -75 0 0 75 0 75 -80 0 -80 0 0 80
0 80 -80 0 -80 0 0 80 0 80 -155 0 -155 0 0 75 0 75 -235 0 -235 0 0 155 0
155 -75 0 -75 0 0 155 0 155 -80 0 -80 0 0 160 0 160 -75 0 -75 0 0 155 0 155
-80 0 -80 0 0 155 0 155 -75 0 -75 0 0 75 0 75 -80 0 -80 0 0 -75z m160 -230
l0 -155 75 0 75 0 0 -155 0 -155 80 0 80 0 0 -160 0 -160 75 0 75 0 0 -155 0
-155 80 0 80 0 0 -155 0 -155 -80 0 -80 0 0 -75 0 -75 -75 0 -75 0 0 -80 0
-80 -80 0 -80 0 0 155 0 155 -75 0 -75 0 0 390 0 390 -80 0 -80 0 0 390 0 390
80 0 80 0 0 -155z m0 -1715 l0 -160 75 0 75 0 0 -75 0 -75 310 0 310 0 0 75 0
75 80 0 80 0 0 160 0 160 155 0 155 0 0 -80 0 -80 155 0 155 0 0 -80 0 -80 80
0 80 0 0 -75 0 -75 80 0 80 0 0 -80 0 -80 75 0 75 0 0 -155 0 -155 80 0 80 0
0 -155 0 -155 75 0 75 0 0 -80 0 -80 80 0 80 0 0 -75 0 -75 75 0 75 0 0 75 0
75 80 0 80 0 0 155 0 155 80 0 80 0 0 80 0 80 75 0 75 0 0 -235 0 -235 80 0
80 0 0 -75 0 -75 230 0 230 0 0 -80 0 -80 -75 0 -75 0 0 -75 0 -75 -155 0
-155 0 0 75 0 75 -155 0 -155 0 0 -75 0 -75 -80 0 -80 0 0 -80 0 -80 -80 0
-80 0 0 -80 0 -80 -75 0 -75 0 0 -75 0 -75 -155 0 -155 0 0 -80 0 -80 -155 0
-155 0 0 -75 0 -75 -235 0 -235 0 0 -80 0 -80 -780 0 -780 0 0 80 0 80 -155 0
-155 0 0 75 0 75 -80 0 -80 0 0 80 0 80 -75 0 -75 0 0 75 0 75 -80 0 -80 0 0
80 0 80 155 0 155 0 0 80 0 80 -155 0 -155 0 0 75 0 75 -75 0 -75 0 0 310 0
310 75 0 75 0 0 235 0 235 80 0 80 0 0 80 0 80 75 0 75 0 0 75 0 75 80 0 80 0
0 80 0 80 75 0 75 0 0 80 0 80 160 0 160 0 0 -160z"/>
<path d="M610 2240 l0 -80 -75 0 -75 0 0 -235 0 -235 390 0 390 0 0 235 0 235
-80 0 -80 0 0 80 0 80 -235 0 -235 0 0 -80z m470 -160 l0 -80 -155 0 -155 0 0
-75 0 -75 -80 0 -80 0 0 75 0 75 80 0 80 0 0 80 0 80 155 0 155 0 0 -80z"/>
<path d="M2010 2240 l0 -80 -75 0 -75 0 0 -235 0 -235 390 0 390 0 0 235 0
235 -80 0 -80 0 0 80 0 80 -235 0 -235 0 0 -80z m470 -160 l0 -80 -155 0 -155
0 0 -75 0 -75 -80 0 -80 0 0 75 0 75 80 0 80 0 0 80 0 80 155 0 155 0 0 -80z"/>
<path d="M4040 1615 l0 -75 -80 0 -80 0 0 -80 0 -80 160 0 160 0 0 155 0 155
-80 0 -80 0 0 -75z"/>
<path d="M1240 1460 l0 -80 75 0 75 0 0 -75 0 -75 155 0 155 0 0 75 0 75 80 0
80 0 0 80 0 80 -80 0 -80 0 0 -80 0 -80 -155 0 -155 0 0 80 0 80 -75 0 -75 0
0 -80z"/>
<path d="M2790 1305 l0 -75 -155 0 -155 0 0 -80 0 -80 -75 0 -75 0 0 -155 0
-155 75 0 75 0 0 -80 0 -80 315 0 315 0 0 80 0 80 75 0 75 0 0 75 0 75 -75 0
-75 0 0 -75 0 -75 -315 0 -315 0 0 155 0 155 155 0 155 0 0 80 0 80 80 0 80 0
0 75 0 75 -80 0 -80 0 0 -75z"/>
<path d="M610 915 l0 -155 80 0 80 0 0 155 0 155 -80 0 -80 0 0 -155z"/>
<path d="M3110 3795 l0 -75 -80 0 -80 0 0 -155 0 -155 80 0 80 0 0 -80 0 -80
75 0 75 0 0 -75 0 -75 80 0 80 0 0 -80 0 -80 75 0 75 0 0 80 0 80 80 0 80 0 0
75 0 75 75 0 75 0 0 80 0 80 80 0 80 0 0 155 0 155 -80 0 -80 0 0 75 0 75
-155 0 -155 0 0 -75 0 -75 -75 0 -75 0 0 75 0 75 -155 0 -155 0 0 -75z"/>
</g>
</svg>
